<svg xmlns="http://www.w3.org/2000/svg" width="32.754" height="29.478" viewBox="0 0 32.754 29.478">
  <g id="blueprint" transform="translate(-2 -4)">
    <path id="Caminho_243" data-name="Caminho 243" d="M53.092,24.744a4.913,4.913,0,0,1,4.367,2.675V8.913A4.913,4.913,0,0,0,52.546,4h0A.546.546,0,0,0,52,4.546V24.2a.546.546,0,0,0,.546.546Z" transform="translate(-22.705)" fill="#f7f7f7"/>
    <path id="Caminho_244" data-name="Caminho 244" d="M34.176,32.787a3.912,3.912,0,0,0-3.923-3.318h-.412A1.638,1.638,0,0,1,28.2,27.831V12H2.546A.546.546,0,0,0,2,12.546V36.565a.546.546,0,0,0,.546.546H30.387a3.826,3.826,0,0,0,3.789-4.325Zm-9.248-.043a.546.546,0,0,1-.546.546H11.28a.546.546,0,0,1-.546-.546V29.469a.546.546,0,0,1,1.092,0V32.2h12.01V16.913H16.193v7.1a.546.546,0,0,1-.546.546H11.28a.546.546,0,1,1,0-1.092H15.1V16.913H6.367V32.744a.546.546,0,0,1-1.092,0V16.367a.546.546,0,0,1,.546-.546h18.56a.546.546,0,0,1,.546.546Z" transform="translate(0 -3.633)" fill="#f7f7f7"/>
  </g>
</svg>
