<svg xmlns="http://www.w3.org/2000/svg" width="40" height="40" viewBox="0 0 40 40">
  <g id="Facebook" transform="translate(0)">
    <path id="Caminho_401" data-name="Caminho 401" d="M415.36,92.56h0a20,20,0,0,1-20-20h0a20,20,0,0,1,20-20h0a20,20,0,0,1,20,20h0A20,20,0,0,1,415.36,92.56Z" transform="translate(-395.36 -52.56)" fill="#af54cf"/>
    <path id="Caminho_402" data-name="Caminho 402" d="M412.19,84.64h4.88V72.43h3.4l.36-4.09h-3.76V66c0-1,.19-1.35,1.12-1.35h2.64V60.42h-3.38c-3.62,0-5.26,1.6-5.26,4.66v3.26h-2.54v4.14h2.54Z" transform="translate(-395.36 -52.56)" fill="#fff"/>
  </g>
</svg>
