<svg xmlns="http://www.w3.org/2000/svg" xmlns:xlink="http://www.w3.org/1999/xlink" width="552" height="486" viewBox="0 0 552 486">
  <defs>
    <clipPath id="clip-path">
      <rect id="Ret칙ngulo_18" data-name="Ret칙ngulo 18" width="552" height="486" transform="translate(739 148)" fill="#fff" stroke="#707070" stroke-width="1"/>
    </clipPath>
  </defs>
  <g id="Grupo_de_m치scara_5" data-name="Grupo de m치scara 5" transform="translate(-739 -148)" clip-path="url(#clip-path)">
    <g id="Inbox_cleanup-amico" data-name="Inbox cleanup-amico" transform="translate(724.432 78.955)">
      <g id="freepik--Floor--inject-150">
        <ellipse id="freepik--floor--inject-150-2" data-name="freepik--floor--inject-150" cx="276" cy="162.143" rx="276" ry="162.143" transform="translate(14.568 223.966)" fill="#f5f5f5"/>
      </g>
      <g id="freepik--Shadows--inject-150">
        <path id="freepik--Shadow--inject-150" d="M40.591,397.61l130.288,75.211a11.86,11.86,0,0,0,10.738,0L426.965,331.181c2.962-1.712,2.962-4.49,0-6.2L296.677,249.769a11.86,11.86,0,0,0-10.738,0L40.637,391.419C37.628,393.12,37.628,395.9,40.591,397.61Z" fill="#e0e0e0"/>
        <ellipse id="freepik--shadow--inject-150-2" data-name="freepik--shadow--inject-150" cx="43.414" cy="25.063" rx="43.414" ry="25.063" transform="translate(446.936 390.216)" fill="#e0e0e0"/>
        <ellipse id="freepik--shadow--inject-150-3" data-name="freepik--shadow--inject-150" cx="64.577" cy="37.281" rx="64.577" ry="37.281" transform="translate(304.592 394.856)" fill="#e0e0e0"/>
      </g>
      <g id="freepik--Device--inject-150">
        <g id="freepik--Mobile--inject-150">
          <g id="freepik--device--inject-150-2" data-name="freepik--device--inject-150">
            <path id="Caminho_320" data-name="Caminho 320" d="M49.292,371.656c-1.817,1.412-1.62,3.471.59,4.7L171.249,446.4a9.835,9.835,0,0,0,8.829,0L411.854,312.541c2.245-1.3,2.43-3.332.521-4.744a9.835,9.835,0,0,1,3.888,7.3v5.785a9.731,9.731,0,0,1-4.339,7.729L180.031,462.418a9.731,9.731,0,0,1-8.829,0L49.894,392.391a9.7,9.7,0,0,1-4.409-7.648V378.9a9.87,9.87,0,0,1,3.807-7.243Z" fill="#263238"/>
            <path id="Caminho_321" data-name="Caminho 321" d="M49.882,376.354,171.249,446.4a9.835,9.835,0,0,0,8.829,0L411.854,312.541c2.43-1.4,2.441-3.691,0-5.091L290.545,237.411a9.8,9.8,0,0,0-8.829,0L49.882,371.263C47.441,372.675,47.441,374.954,49.882,376.354ZM263.064,255.52c2.083-1.157,4.258-.509,6.341.706l110.305,63.64c2.083,1.157,2.094,3.159,0,4.362L199.2,428.446a8.424,8.424,0,0,1-7.567,0L81.343,364.795c-2.094-1.157-2.094-3.159,0-4.362Z" fill="#455a64"/>
            <path id="Caminho_322" data-name="Caminho 322" d="M412.374,307.785a9.835,9.835,0,0,1,3.888,7.3v5.785a9.754,9.754,0,0,1-4.339,7.741L180.031,462.418a9.152,9.152,0,0,1-4.42,1.065V447.446a9.106,9.106,0,0,0,4.42-1.053L411.854,312.541C414.1,311.256,414.237,309.208,412.374,307.785Z" fill="#37474f"/>
            <path id="Caminho_323" data-name="Caminho 323" d="M339.559,279.309c-1.632-.949-1.632-2.476,0-3.413a6.526,6.526,0,0,1,5.924,0c1.632.937,1.632,2.465,0,3.413A6.6,6.6,0,0,1,339.559,279.309Z"/>
            <path id="Caminho_324" data-name="Caminho 324" d="M122,409.609a14.822,14.822,0,0,1-7.255-1.736c-2.048-1.157-3.17-2.789-3.17-4.513s1.157-3.344,3.17-4.524a16.025,16.025,0,0,1,14.51,0c2.048,1.157,3.17,2.789,3.17,4.524s-1.157,3.332-3.17,4.513A14.822,14.822,0,0,1,122,409.609Zm0-11.363a13.758,13.758,0,0,0-6.676,1.585c-1.678.972-2.592,2.222-2.592,3.529s.914,2.546,2.592,3.471a14.788,14.788,0,0,0,13.353,0c1.666-.972,2.592-2.222,2.592-3.471s-.926-2.557-2.592-3.529A13.757,13.757,0,0,0,122,398.269Z" fill="#e6e6e6"/>
            <path id="Caminho_325" data-name="Caminho 325" d="M342.5,290.637l-22.841-13.179c-1.354-.787-1.423-2.025-.15-2.765a5.276,5.276,0,0,1,4.779.093l22.841,13.179c1.365.787,1.423,2.025.15,2.765a5.276,5.276,0,0,1-4.779-.093Z"/>
            <path id="Caminho_326" data-name="Caminho 326" d="M263.064,255.52c2.083-1.157,4.258-.509,6.341.706l110.305,63.64c2.083,1.157,2.094,3.159,0,4.362L199.2,428.446a8.424,8.424,0,0,1-7.567,0L81.343,364.795c-2.094-1.157-2.094-3.159,0-4.362Z" fill="#ba68c8"/>
            <path id="Caminho_327" data-name="Caminho 327" d="M263.064,255.52c2.083-1.157,4.258-.509,6.341.706l110.305,63.64c2.083,1.157,2.094,3.159,0,4.362L199.2,428.446a8.424,8.424,0,0,1-7.567,0L81.343,364.795c-2.094-1.157-2.094-3.159,0-4.362Z" fill="#fff" opacity="0.8"/>
          </g>
        </g>
      </g>
      <g id="freepik--Plants--inject-150">
        <g id="freepik--plants--inject-150-2" data-name="freepik--plants--inject-150">
          <path id="Caminho_328" data-name="Caminho 328" d="M113.082,350.9l7.671-4.385s3.68-20.272.926-37.7c-3.865-24.5-20.55-32.942-26.613-30.512s-7.475,9.7,3.471,23.848C104.983,310.5,113.29,328.161,113.082,350.9Z" fill="#ba68c8"/>
          <path id="Caminho_329" data-name="Caminho 329" d="M113.082,350.9l7.671-4.385s3.68-20.272.926-37.7c-3.865-24.5-20.55-32.942-26.613-30.512s-7.475,9.7,3.471,23.848C104.983,310.5,113.29,328.161,113.082,350.9Z" opacity="0.3"/>
          <path id="Caminho_330" data-name="Caminho 330" d="M115.859,341.167h-.069a.567.567,0,0,1-.474-.625c3.17-22.933-6.052-48.065-16.419-58.19a.548.548,0,1,1,.764-.787c10.553,10.321,19.96,35.87,16.743,59.127a.544.544,0,0,1-.544.474Z" fill="#fff"/>
          <path id="Caminho_331" data-name="Caminho 331" d="M91.8,363.187c-1.157.694-3.714-.822-4.628-1.458a11.571,11.571,0,0,1-3.865-4.42,10.8,10.8,0,0,1-.96-6.514,25.9,25.9,0,0,1,.822-3.471l.972-3.355a8.528,8.528,0,0,0,.486-3.39c-.289-2.314-2.314-3.911-4.189-5.3-2.048-1.527-4.189-3.552-4.177-6.318a9.789,9.789,0,0,1,2.441-5.785c1.319-1.678,2.893-3.159,4.085-4.918a6.8,6.8,0,0,0,1.4-4.3,7.22,7.22,0,0,0-.937-2.684,36.958,36.958,0,0,1-2.939-5.392c-.671-1.932-.579-4.339.926-5.716A6.352,6.352,0,0,1,86.006,299a10.957,10.957,0,0,1,4.42,1.562c4.4,2.441,6.943,7.637,11.571,9.523a46.712,46.712,0,0,0,5.612,1.342,6.943,6.943,0,0,1,4.628,3.182c1.7,3.471-1.469,7.625-.266,11.258,1.065,3.205,4.189,4.432,5.936,7.324a6.943,6.943,0,0,1,.822,4.212,20.261,20.261,0,0,1-1.77,7.093,51.376,51.376,0,0,1-3.9,6.4C113.013,350.968,91.988,363.082,91.8,363.187Z" fill="#ba68c8"/>
          <path id="Caminho_332" data-name="Caminho 332" d="M91.8,363.187c-1.157.694-3.714-.822-4.628-1.458a11.571,11.571,0,0,1-3.865-4.42,10.8,10.8,0,0,1-.96-6.514,25.9,25.9,0,0,1,.822-3.471l.972-3.355a8.528,8.528,0,0,0,.486-3.39c-.289-2.314-2.314-3.911-4.189-5.3-2.048-1.527-4.189-3.552-4.177-6.318a9.789,9.789,0,0,1,2.441-5.785c1.319-1.678,2.893-3.159,4.085-4.918a6.8,6.8,0,0,0,1.4-4.3,7.22,7.22,0,0,0-.937-2.684,36.958,36.958,0,0,1-2.939-5.392c-.671-1.932-.579-4.339.926-5.716A6.352,6.352,0,0,1,86.006,299a10.957,10.957,0,0,1,4.42,1.562c4.4,2.441,6.943,7.637,11.571,9.523a46.712,46.712,0,0,0,5.612,1.342,6.943,6.943,0,0,1,4.628,3.182c1.7,3.471-1.469,7.625-.266,11.258,1.065,3.205,4.189,4.432,5.936,7.324a6.943,6.943,0,0,1,.822,4.212,20.261,20.261,0,0,1-1.77,7.093,51.376,51.376,0,0,1-3.9,6.4C113.013,350.968,91.988,363.082,91.8,363.187Z" opacity="0.15"/>
          <path id="Caminho_333" data-name="Caminho 333" d="M104.254,356.556h0a.544.544,0,0,1-.532-.567c.9-21.707-9.326-45.682-16.766-52.647a.532.532,0,0,1,0-.764.544.544,0,0,1,.764,0c7.59,7.1,18.027,31.473,17.113,53.492a.544.544,0,0,1-.579.486Z" fill="#fff"/>
          <path id="Caminho_334" data-name="Caminho 334" d="M101,330.927a.371.371,0,0,1-.162,0,73.278,73.278,0,0,0-15.76-2.534.555.555,0,0,1,0-1.1,75.4,75.4,0,0,1,16.037,2.592.544.544,0,0,1-.162,1.065Z" fill="#fff"/>
        </g>
      </g>
      <g id="freepik--Mailbox--inject-150">
        <g id="freepik--mailbox--inject-150-2" data-name="freepik--mailbox--inject-150">
          <path id="Caminho_335" data-name="Caminho 335" d="M185.805,153.777l-14.151-8.169c-.636-.359-1.088-.451-1.342-.312l-1.724,1.007c-.3.162-.289.683.093,1.469l3.471,7.128-2.569,2.314a2,2,0,0,0,.382,3.4l14.14,8.169,1.736-1Z" fill="#ba68c8"/>
          <path id="Caminho_336" data-name="Caminho 336" d="M185.805,153.777l-14.151-8.169c-.636-.359-1.088-.451-1.342-.312l-1.724,1.007c-.3.162-.289.683.093,1.469l3.471,7.128-2.569,2.314a2,2,0,0,0,.382,3.4l14.14,8.169,1.736-1Z" fill="#fff" opacity="0.5"/>
          <path id="Caminho_337" data-name="Caminho 337" d="M169.93,146.615c-1.389-.81-1.944-.289-1.25,1.157l3.471,7.128-2.569,2.314a2,2,0,0,0,.382,3.4l14.14,8.169V154.772Z" fill="#ba68c8"/>
          <path id="Caminho_338" data-name="Caminho 338" d="M185.736,198.8a1.678,1.678,0,0,1-1.666-1.666v-47a1.666,1.666,0,0,1,3.332,0v47A1.678,1.678,0,0,1,185.736,198.8Z" fill="#e0e0e0"/>
          <path id="Caminho_339" data-name="Caminho 339" d="M118.775,364.1v-2.939h.717a11.571,11.571,0,0,1,4.756-4.628c7.313-4.223,19.161-4.223,26.474,0a11.571,11.571,0,0,1,4.756,4.628h.729v2.846c0,2.812-1.759,5.623-5.473,7.776-7.313,4.212-19.161,4.212-26.474,0C120.58,369.666,118.752,366.878,118.775,364.1Z" fill="#263238"/>
          <ellipse id="Elipse_22" data-name="Elipse 22" cx="18.722" cy="10.807" rx="18.722" ry="10.807" transform="translate(118.763 350.354)" fill="#455a64"/>
          <path id="Caminho_340" data-name="Caminho 340" d="M142.322,215.727V359.854a2.4,2.4,0,0,1-1.412,1.967,7.521,7.521,0,0,1-6.815,0,2.4,2.4,0,0,1-1.412-1.967V215.727Z" fill="#37474f"/>
          <path id="Caminho_341" data-name="Caminho 341" d="M132.672,227.888v9.453l9.639,5.554v-9.43Z" fill="#263238"/>
          <path id="Caminho_342" data-name="Caminho 342" d="M173.69,210.243l17.819,10.3a1.284,1.284,0,0,1-.347.359L159.99,238.892a.294.294,0,0,1-.474-.278V216.155a35.071,35.071,0,0,1,2.6-12.589Z" fill="#37474f"/>
          <path id="Caminho_343" data-name="Caminho 343" d="M191.648,195.548V220.68l-29.517-17.044a2.314,2.314,0,0,1,.093-.255c3.17-7.9,8.5-14.614,14.29-17.935a13.48,13.48,0,0,1,6.676-2.071C188.409,183.317,191.648,187.98,191.648,195.548Z" fill="#263238"/>
          <path id="Caminho_344" data-name="Caminho 344" d="M223.711,248.681V246.46H223.5v.312a10.065,10.065,0,0,0-.59-1.817,16.951,16.951,0,0,0-7.452-7.567l-21.071-12.207a3.471,3.471,0,0,0-3.182,0L158.938,243.8a4.455,4.455,0,0,1-1.03-1.157v2.314h0a1.157,1.157,0,0,0,.66.926l21.094,12.149a40.336,40.336,0,0,0,20.18,4.767,35.083,35.083,0,0,0,16.789-4.085C221.374,255.982,223.711,252.372,223.711,248.681Z" fill="#263238"/>
          <path id="Caminho_345" data-name="Caminho 345" d="M222.913,244.932a16.951,16.951,0,0,0-7.452-7.567l-21.071-12.184a3.471,3.471,0,0,0-3.182,0L158.938,243.8l20.723,11.976a40.336,40.336,0,0,0,20.18,4.767,35.083,35.083,0,0,0,16.789-4.085c4.258-2.453,6.584-5.612,7.012-8.91a9.627,9.627,0,0,0-.729-2.615Z" fill="#455a64"/>
          <path id="Caminho_346" data-name="Caminho 346" d="M223.642,247.547a9.626,9.626,0,0,0-.729-2.615,16.951,16.951,0,0,0-7.452-7.567l-21.071-12.184a3.471,3.471,0,0,0-3.182,0L158.938,243.8l-.37-.208a.96.96,0,0,1,0-1.828l32.618-18.837a3.471,3.471,0,0,1,3.182,0L215.461,235.1c3.8,2.2,6.271,4.837,7.452,7.579a9.823,9.823,0,0,1,.752,2.777,9.048,9.048,0,0,1-.023,2.094Z" fill="#37474f"/>
          <path id="Caminho_347" data-name="Caminho 347" d="M159.273,241.438,191.891,222.6l-.717-1.7L160,238.9Z" fill="#455a64"/>
          <g id="freepik--Letter--inject-150">
            <path id="Caminho_348" data-name="Caminho 348" d="M188.779,194a1.736,1.736,0,0,0-.775-1.354l-39.723-22.922a1.666,1.666,0,0,0-1.55,0l-.879.5a1.736,1.736,0,0,0-.775,1.342v30.455a1.736,1.736,0,0,0,.775,1.342l39.723,22.922a1.666,1.666,0,0,0,1.55,0l.879-.5a1.747,1.747,0,0,0,.775-1.342Z" fill="#ba68c8"/>
            <path id="Caminho_349" data-name="Caminho 349" d="M188.605,193.234l-2.2,1.273-41.042-23.7a1.643,1.643,0,0,1,.544-.579l.879-.5a1.666,1.666,0,0,1,1.551,0l39.711,22.922a1.666,1.666,0,0,1,.555.579Z" opacity="0.35"/>
            <path id="Caminho_350" data-name="Caminho 350" d="M186.164,226.454Z" fill="#ba68c8"/>
            <path id="Caminho_351" data-name="Caminho 351" d="M186.349,194.495l-.4.243a.671.671,0,0,1,.4.66V225.84a.532.532,0,0,1-.243.509.509.509,0,0,1-.37,0l-.162-.069-39.723-22.933a1.736,1.736,0,0,1-.775-1.342V171.573a1.62,1.62,0,0,1,.231-.775Z" opacity="0.2"/>
            <path id="Caminho_352" data-name="Caminho 352" d="M186.349,194.495l-18.4,6.838a3.008,3.008,0,0,1-3.552-1.157l-2.951-4.524-16.292-24.958,15.679,25.155-15.783,6.179a1.724,1.724,0,0,0,.243.775l15.586-6.943,3.471,5.5a2.985,2.985,0,0,0,3.737,1.157l2.441-1.076L186.117,226.3a.532.532,0,0,0,.243-.509v-.509L170.6,201.449Z" opacity="0.2"/>
          </g>
          <g id="freepik--letter--inject-150-2" data-name="freepik--letter--inject-150">
            <path id="Caminho_353" data-name="Caminho 353" d="M179.349,199.378a1.7,1.7,0,0,0-.775-1.342L138.85,175.1a1.77,1.77,0,0,0-1.562,0l-.868.509a1.7,1.7,0,0,0-.775,1.342V207.4a1.7,1.7,0,0,0,.775,1.342l39.711,22.933a1.736,1.736,0,0,0,1.55,0l.879-.509a1.7,1.7,0,0,0,.775-1.342Z" fill="#ba68c8"/>
            <path id="Caminho_354" data-name="Caminho 354" d="M179.152,198.614l-2.21,1.273L135.9,176.19a1.666,1.666,0,0,1,.555-.579l.879-.509a1.736,1.736,0,0,1,1.55,0L178.6,198.035A1.574,1.574,0,0,1,179.152,198.614Z" opacity="0.35"/>
            <path id="Caminho_355" data-name="Caminho 355" d="M176.768,231.846Z" fill="#ba68c8"/>
            <path id="Caminho_356" data-name="Caminho 356" d="M176.953,199.887l-.4.243a.671.671,0,0,1,.4.66v30.443a.532.532,0,0,1-.243.509.509.509,0,0,1-.37,0l-.162-.069-39.723-22.933a1.736,1.736,0,0,1-.775-1.342V176.965a1.62,1.62,0,0,1,.231-.775Z" opacity="0.2"/>
            <path id="Caminho_357" data-name="Caminho 357" d="M176.942,199.887l-18.421,6.873a3,3,0,0,1-3.552-1.157l-2.951-4.524-16.257-24.97,15.7,25.12-15.783,6.179a1.527,1.527,0,0,0,.243.775l15.586-6.85,3.471,5.485a3,3,0,0,0,3.749,1.157l2.441-1.088,15.586,24.877a.567.567,0,0,0,.231-.521v-.5l-15.736-23.882Z" opacity="0.2"/>
          </g>
          <g id="freepik--letter--inject-150-3" data-name="freepik--letter--inject-150">
            <path id="Caminho_358" data-name="Caminho 358" d="M169.976,204.8a1.7,1.7,0,0,0-.775-1.342l-39.723-22.957a1.7,1.7,0,0,0-1.55,0l-.879.509a1.7,1.7,0,0,0-.775,1.342v30.431a1.724,1.724,0,0,0,.775,1.342l39.723,22.933a1.736,1.736,0,0,0,1.551,0l.879-.509a1.724,1.724,0,0,0,.775-1.342Z" fill="#ba68c8"/>
            <path id="Caminho_359" data-name="Caminho 359" d="M169.745,204.006l-2.2,1.273-41.042-23.7a1.55,1.55,0,0,1,.544-.579l.879-.509a1.666,1.666,0,0,1,1.55,0L169.2,203.428a1.55,1.55,0,0,1,.544.579Z" opacity="0.35"/>
            <path id="Caminho_360" data-name="Caminho 360" d="M167.361,237.2Z" fill="#ba68c8"/>
            <path id="Caminho_361" data-name="Caminho 361" d="M167.546,205.267l-.4.243a.671.671,0,0,1,.4.66v30.443a.532.532,0,0,1-.243.509.509.509,0,0,1-.37,0l-.162-.069-39.723-22.922a1.736,1.736,0,0,1-.775-1.342V182.345a1.62,1.62,0,0,1,.231-.775Z" opacity="0.2"/>
            <path id="Caminho_362" data-name="Caminho 362" d="M167.546,205.279l-18.4,6.862a2.962,2.962,0,0,1-3.541-1.157l-2.962-4.536-16.292-24.958,15.7,25.132L126.273,212.8a1.782,1.782,0,0,0,.243.775l15.586-6.943,3.471,5.5a2.985,2.985,0,0,0,3.737,1.157l2.441-1.076,15.586,24.866a.532.532,0,0,0,.243-.509v-.509l-15.748-23.882Z" opacity="0.2"/>
          </g>
          <path id="Caminho_363" data-name="Caminho 363" d="M187.518,182.507c-3.159-1.655-7.348-1.365-11.93,1.284-5.149,2.962-9.789,8.319-13.04,14.475a45.336,45.336,0,0,0-2.036,4.374,36.911,36.911,0,0,0-2.835,13.515v25.676a3.344,3.344,0,0,1-1.585-.382l-56.5-32.688a3.552,3.552,0,0,1-1.585-2.8v-24.3c0-12.173,8.019-26.613,17.9-32.4,4.628-2.708,8.944-2.927,12.138-1.157h0Z" fill="#455a64"/>
          <path id="Caminho_364" data-name="Caminho 364" d="M160.511,202.641a36.911,36.911,0,0,0-2.835,13.515v25.676a3.159,3.159,0,0,1-.579-.058c0-1.481,0-9.72,0-25.606,0-18.884,14.521-30.883,18.513-32.4-5.149,2.962-9.789,8.319-13.04,14.475a45.333,45.333,0,0,0-2.06,4.4Z" fill="#37474f"/>
          <path id="Caminho_365" data-name="Caminho 365" d="M160,238.892a.3.3,0,0,1-.486-.266V216.155a35.036,35.036,0,0,1,2.615-12.578,2.312,2.312,0,0,1,.093-.255A42.116,42.116,0,0,1,164.4,198.7c3.17-5.855,7.5-10.668,12.115-13.318a13.48,13.48,0,0,1,6.676-2.071,7.382,7.382,0,0,1,3.471.845c3.113,1.666,4.941,5.693,4.941,11.328v24.577a1.041,1.041,0,0,1-.474.833l.717,1.7.162-.1a2.847,2.847,0,0,0,.66-.636h0a3.471,3.471,0,0,0,.764-2.013V195.548c0-6.514-2.314-11.05-5.959-12.971-3.17-1.666-7.348-1.377-11.941,1.273-5.137,2.962-9.777,8.319-13.04,14.475a45.226,45.226,0,0,0-2.025,4.374,36.911,36.911,0,0,0-2.835,13.515v25.618h.278a3.182,3.182,0,0,0,1.308-.37Z" fill="#455a64"/>
        </g>
      </g>
      <g id="freepik--trash-can--inject-150">
        <g id="freepik--trash-can--inject-150-2" data-name="freepik--trash-can--inject-150">
          <path id="Caminho_366" data-name="Caminho 366" d="M530.143,340.589H450.5l6.943,70.328h0c.428,4.5,3.622,8.933,9.581,12.369,12.855,7.429,33.683,7.429,46.538,0,5.959-3.471,9.141-7.868,9.581-12.369h0Z" fill="#37474f"/>
          <ellipse id="Elipse_23" data-name="Elipse 23" cx="39.885" cy="23.026" rx="39.885" ry="23.026" transform="translate(450.442 316.278)" fill="#455a64"/>
          <path id="Caminho_367" data-name="Caminho 367" d="M490.327,359.044c-10.09,0-19.52-2.233-26.613-6.295-6.468-3.737-10.032-8.516-10.032-13.445s3.564-9.708,10.032-13.445c7.047-4.061,16.477-6.306,26.613-6.306s19.52,2.245,26.555,6.306c6.48,3.737,10.044,8.516,10.044,13.445s-3.564,9.708-10.044,13.445C509.847,356.811,500.417,359.044,490.327,359.044Z" fill="#37474f"/>
          <path id="Caminho_368" data-name="Caminho 368" d="M517.7,343.967c-1.99-1.493-5.531-.139-6.943-2.222-.44-.66-.521-1.55-1.157-2.06-1.851-1.527-4.628,2.615-6.6,1.157-.717-.521-.9-1.632-1.7-1.99-.59-.255-1.261,0-1.9,0a3.819,3.819,0,0,1-2.985-2.569,13.422,13.422,0,0,0-1.84-3.714,4.1,4.1,0,0,0-2.65-1.308c-2.5-.22-4.547,1.817-6.225,3.68-.266.3-.544.6-.81.914a6.017,6.017,0,0,1-1.724,1.481,1.539,1.539,0,0,1-1.157.162,1.654,1.654,0,0,1-.914-.937c-.706-1.527-.544-3.876-2.175-4.3-.44-.116-.96-.058-1.308-.359s-.336-.752-.579-1.088a1.793,1.793,0,0,0-1.377-.579c-3.356-.255-6.318,2-8.921,4.131-1.4-.926-1.551-2.974-1.018-4.628,1.342-4,5.566-6.214,9.523-7.695,1.851-.694,3.737-1.308,5.635-1.863a48.6,48.6,0,0,0-17.229,5.612c-6.468,3.737-10.032,8.516-10.032,13.445s3.564,9.708,10.032,13.445c7.047,4.061,16.477,6.295,26.613,6.295s19.52-2.233,26.555-6.295l.417-.255c.393-.822.752-1.655,1.065-2.511C519.1,347.948,519.428,345.275,517.7,343.967Z" opacity="0.1"/>
          <path id="Caminho_369" data-name="Caminho 369" d="M471.582,418.171a35.866,35.866,0,0,1-5.068-2.407c-.6-.347-1.157-.694-1.712-1.065a6.028,6.028,0,0,1-1.863-4.061l-3.946-47.313c-.139-1.585.579-2.21,1.666-1.481q.96.648,2.013,1.25a41.34,41.34,0,0,0,6.295,2.951,4.709,4.709,0,0,1,2.881,3.83l2.314,46.341a1.805,1.805,0,0,1-2.58,1.956Z" fill="#263238"/>
          <path id="Caminho_370" data-name="Caminho 370" d="M496.46,372.316l-.787,46.006a3.17,3.17,0,0,1-2.939,3.089c-1.6.069-3.217.069-4.825,0a3.17,3.17,0,0,1-2.927-3.089l-.752-46.006a2.615,2.615,0,0,1,2.835-2.685,62.043,62.043,0,0,0,6.561,0,2.615,2.615,0,0,1,2.835,2.684Z" fill="#263238"/>
          <path id="Caminho_371" data-name="Caminho 371" d="M521.719,363.325l-3.992,47.348a6.144,6.144,0,0,1-1.875,4.073c-.544.359-1.157.717-1.712,1.053a36.63,36.63,0,0,1-5.022,2.372,1.805,1.805,0,0,1-2.592-1.944l2.314-46.353a4.709,4.709,0,0,1,2.881-3.83,42.724,42.724,0,0,0,6.271-2.939c.706-.4,1.389-.833,2.036-1.273C521.117,361.092,521.846,361.705,521.719,363.325Z" fill="#263238"/>
          <path id="Caminho_372" data-name="Caminho 372" d="M456.02,346.038a23.7,23.7,0,0,0,7.741,6.711c7.047,4.061,16.477,6.295,26.613,6.295s19.52-2.233,26.555-6.295a27.516,27.516,0,0,0,5.647-4.223,7.092,7.092,0,0,0-.706-1.979,4.628,4.628,0,0,0-3.587-2.453c-.868,0-1.724.2-2.58.15a2.013,2.013,0,0,1-1.99-1.331c-.081-.382,0-.787-.058-1.157-.2-1.007-1.469-1.435-2.488-1.25s-1.909.775-2.9,1.03a2.245,2.245,0,0,1-2.673-.926c-.2-.486-.127-1.065-.4-1.516-.555-.937-2.2-.729-2.742-1.678-.428-.752.1-1.655.231-2.5a3.6,3.6,0,0,0-2.048-3.471,10.414,10.414,0,0,0-4.142-.926,6.827,6.827,0,0,0-4.513.636c-1.342.926-1.84,2.627-2.476,4.119s-1.817,3.055-3.471,3.043a3.726,3.726,0,0,0-2.187-3.159,15.146,15.146,0,0,0-2.314-.579c-2.372-.648-4.628-2.627-6.943-1.99a6.712,6.712,0,0,0-2.592,1.655l-3.865,3.39a6.225,6.225,0,0,0-2.106,2.708,5.667,5.667,0,0,1-.417,1.389c-.729,1.157-2.245.694-3.367.717a6.283,6.283,0,0,0-4.281,1.3A7.115,7.115,0,0,0,456.02,346.038Z" fill="#ba68c8"/>
          <path id="Caminho_373" data-name="Caminho 373" d="M516.882,352.75a27.52,27.52,0,0,0,5.647-4.223,7.046,7.046,0,0,0-.2-.706,11.443,11.443,0,0,1-9.835,2.314,12.01,12.01,0,0,0-3.471-.694,2.488,2.488,0,0,0-2.511,2.094.925.925,0,0,1,0,.474.683.683,0,0,1-.5.278c-3.032.66-6.48-1.157-9.164.428a16.5,16.5,0,0,1-2.777,1.84,5.554,5.554,0,0,1-3.552-.486,2.234,2.234,0,0,1-.891-.486c-.463-.474-.451-1.227-.81-1.77a3.136,3.136,0,0,0-1.215-.891,9.511,9.511,0,0,0-5.2-1.435,6.364,6.364,0,0,0-4.825,4.108c-4.27-1.493-7.359-6.48-11.86-6.005-.393-1.389,1.261-2.441,2.65-2.858s3.113-1.065,3.17-2.511a14.988,14.988,0,0,1-.208-1.782c.1-.833.937-1.574.683-2.384a3.586,3.586,0,0,0-.683-.949,2.476,2.476,0,0,1-.44-1.84l-2.65,2.314a6.225,6.225,0,0,0-2.106,2.708,5.67,5.67,0,0,1-.417,1.389c-.729,1.157-2.245.694-3.367.717a6.283,6.283,0,0,0-4.281,1.3A7.115,7.115,0,0,0,456.124,346a23.7,23.7,0,0,0,7.741,6.711c7.047,4.061,16.477,6.295,26.613,6.295S509.847,356.811,516.882,352.75Z" opacity="0.1"/>
        </g>
      </g>
      <g id="freepik--Character--inject-150">
        <g id="freepik--character--inject-150-2" data-name="freepik--character--inject-150">
          <g id="freepik--letter--inject-150-4" data-name="freepik--letter--inject-150">
            <path id="Caminho_374" data-name="Caminho 374" d="M459.063,262.439a1.608,1.608,0,0,0-.729-1.273l-37.513-21.649a1.643,1.643,0,0,0-1.469,0l-.822.486a1.62,1.62,0,0,0-.741,1.261v28.754a1.62,1.62,0,0,0,.741,1.273l37.513,21.661a1.62,1.62,0,0,0,1.458,0l.833-.486a1.608,1.608,0,0,0,.729-1.261Z" fill="#ba68c8"/>
            <path id="Caminho_375" data-name="Caminho 375" d="M458.854,261.71l-2.083,1.157-38.762-22.378a1.5,1.5,0,0,1,.521-.555l.822-.474a1.643,1.643,0,0,1,1.469,0l37.513,21.661A1.678,1.678,0,0,1,458.854,261.71Z" fill="#fff" opacity="0.4"/>
            <path id="Caminho_376" data-name="Caminho 376" d="M459.063,262.439v28.754a1.608,1.608,0,0,1-.729,1.261l-.833.486-.2.093-.3.069a1.943,1.943,0,0,1-.579,0h-.139a.15.15,0,0,1-.093,0,.4.4,0,0,0,.347,0,.509.509,0,0,0,.231-.486v-28.8a.636.636,0,0,0-.382-.625l.382-.22,2.083-1.157a1.585,1.585,0,0,1,.208.625Z" opacity="0.2"/>
            <path id="Caminho_377" data-name="Caminho 377" d="M456.772,262.913,439.415,269.4a2.835,2.835,0,0,1-3.356-1.157l-2.789-4.281L417.882,240.4l14.869,23.79-14.915,5.785a1.631,1.631,0,0,0,.231.741l14.683-6.457L436,269.439a2.812,2.812,0,0,0,3.529,1.088l2.314-1.018L456.552,293a.509.509,0,0,0,.231-.486v-.474l-14.869-22.563Z" opacity="0.2"/>
          </g>
          <path id="Caminho_378" data-name="Caminho 378" d="M424.755,207.778l-17.206-31.056s-19.127-23.882-11.64-33.787c10.206-.937,19.231.845,27.77,17.356,9.592,18.409,14.151,31.739,19.138,43.738,1.377,3.321,1.238,19.67.914,32.04-.208,8.1.278,16.882.278,16.882l-6.48-3.737a10.009,10.009,0,0,0-4.871-1.342h-1.62a14.856,14.856,0,0,0-3.471,5.936c-1.03,4.628-3.564,6.063-4.929,4.976-.66-.532-1.157-3.263.382-9.743,1.25-5.323,6.1-10.53,5.461-14.6Z" fill="#ffa8a7"/>
          <path id="Caminho_379" data-name="Caminho 379" d="M395.909,142.935s6.5-1.458,11.386.185,8.308,3.552,13.526,11.328,16.789,34.921,16.789,34.921-1.4,7.475-18.513,10.159L402.042,172.07Z" fill="#37474f"/>
          <path id="Caminho_380" data-name="Caminho 380" d="M369.238,134.28l3.437,21.672,21.5-1.146-3.078-25.2Z" fill="#ffa8a7"/>
          <path id="Caminho_381" data-name="Caminho 381" d="M354.786,107.667s-5.126,7.776-4.536,8.539,4.351,1.458,4.351,1.458Z" fill="#f28f8f"/>
          <path id="Caminho_382" data-name="Caminho 382" d="M369.018,86.168c-10.414,2.187-13.364,6.746-14.348,23.211-1.018,17.206.741,22.621,3,24.935,1.527,1.562,10.009,1.851,14.29.671,5.357-1.481,17.46-5.785,23.142-14.429,6.665-10.182,8.412-23.986,1.273-29.645C386.317,82.94,373.23,85.277,369.018,86.168Z" fill="#ffa8a7"/>
          <path id="Caminho_383" data-name="Caminho 383" d="M369.435,135.46a43.162,43.162,0,0,0,5.461-1.377,9.685,9.685,0,0,1-5.207,3.008Z" fill="#f28f8f"/>
          <path id="Caminho_384" data-name="Caminho 384" d="M352.576,92.567a14.57,14.57,0,0,0,2.65,2.06,36.689,36.689,0,0,0,4.327,2.4A24.992,24.992,0,0,1,363.765,99c1.886,1.342,2.129,3.113,2.175,5.276v5.08c0,2.858,1.851,5.022,2.742,1.157,0,0,1.643-6.352,7-5.554s5.785,6.838,3.286,11.571c-1.562,2.881-5.728,2.129-5.728,2.129a18.756,18.756,0,0,0,5.6,14.429s4.131,1.25,12.566-.544c5.184-1.157,10.159-6.815,13.237-13.677,6.514-14.51,6.943-27.573-2.314-31.484-1.007-6.688-6.271-9.685-12.265-11.062-8.979-2.06-17.356,3.263-26.254,1.284a42.512,42.512,0,0,1-4.328-1.157,2.418,2.418,0,0,0-1.747-.116,1.979,1.979,0,0,0-.845,1.979,5.369,5.369,0,0,0,2.615,4.212c-.185-.1-1.053.127-1.284.139a12.877,12.877,0,0,0-1.493.058,27.228,27.228,0,0,1-2.916-.208,5.346,5.346,0,0,0-2.013.069,3.633,3.633,0,0,0-2.314,3.656,8.967,8.967,0,0,0,1.6,4.3,13.08,13.08,0,0,0,1.076,1.539A4.5,4.5,0,0,1,352.576,92.567Z" fill="#263238"/>
          <path id="Caminho_385" data-name="Caminho 385" d="M402.562,89.674l6.2-3.656a3.6,3.6,0,0,0-6.2,3.656Z" fill="#263238"/>
          <path id="Caminho_386" data-name="Caminho 386" d="M408.348,411.68l.1,1.4a25.282,25.282,0,0,1,.139,5.531c-.15,1.273-.521,3-1.7,3.691a14.9,14.9,0,0,1-4.05,1.585,14.174,14.174,0,0,1-9.384-.926c-2.43-1.157-4.339-3.032-6.942-3.772a52.445,52.445,0,0,0-8.285-1.365,18.672,18.672,0,0,1-3.656-.671A17.357,17.357,0,0,1,371.934,416a25.988,25.988,0,0,1-7.833-5.716,12.4,12.4,0,0,1-2.789-5.589c-.243-1.215-.741-4.732,1.3-4.628,9.974.451,19.844,2.592,29.83,2.476a10.933,10.933,0,0,1,1.944.081,8.1,8.1,0,0,1,3.344,1.562,3.471,3.471,0,0,0,3.066.752,15.228,15.228,0,0,1,5.172.069,2.442,2.442,0,0,1,1.782,1.157,2.719,2.719,0,0,1,.151.752C408.035,408.452,408.2,410.083,408.348,411.68Z" fill="#263238"/>
          <path id="Caminho_387" data-name="Caminho 387" d="M407.295,399.727l-.509,7.521c-.486,2.858-10.24,4.628-12.254-.451l-.96-8.528Z" fill="#ffa8a7"/>
          <path id="Caminho_388" data-name="Caminho 388" d="M370.268,429.464s1.157,3.911,1.805,7.324c.486,2.708,1.157,7.232.185,9.257s-4.709,3.24-10.414,3.066c-3.7-.116-9.523,2.314-13.526,4.385s-12.635,2.9-16.94,2.314c-5.08-.717-10.275-3.784-11.05-5.913s.37-4.281,12.462-9.118c.116,0,16.789-5.056,22.737-11.328Z" fill="#263238"/>
          <path id="Caminho_389" data-name="Caminho 389" d="M370.326,424.651s-.093,3.309-.127,5.207-2.314,4.628-8.1,4.327c-4.061-.243-6.873-1.4-6.63-4.744l.1-4.825Z" fill="#ffa8a7"/>
          <path id="Caminho_390" data-name="Caminho 390" d="M411.263,341.989c-1.712-14.637-3-23.014-3-23.014s.289-20.376,1.493-39.341c1.284-20.527,1-46.376,1.5-51.49,0,0-65.954-14.082-66.486,9.7-.625,27.631,1.157,84.8,1.608,92.243.555,10.414.579,21.325,2.314,38.276,1.747,16.743,6.827,56.292,6.827,56.292,7.486,4.27,14.764,0,14.764,0s5.728-47.441,5.508-59.44a165.2,165.2,0,0,0-2.5-26.058l5.2-53.631s2.036,16.581,2.592,27.03,1.979,16.836,4.559,36.275c2.245,16.882,7.926,52.485,7.926,52.485a13.33,13.33,0,0,0,14.024-.555S412.976,356.626,411.263,341.989Z" fill="#ba68c8"/>
          <path id="Caminho_391" data-name="Caminho 391" d="M403.615,260.564s-4.571,7.533-18.432,13.064l-3.865,12.948-.417,22.76c-.532-7.336-1.342-15.343-2.372-23.824l1.562-13.341S395.4,267.53,403.615,260.564Z" opacity="0.15"/>
          <path id="Caminho_392" data-name="Caminho 392" d="M413.8,156.808c-2.65-9.419-8.863-13.584-15.771-14.024-1.759-.116-5.323,0-5.323,0,.486,3.992-11.814,6.815-21.383,4.559-2.881.764-7.66,1.84-10.067,2.638-6.873,2.314-15.123,10.888-16.2,33.324,0,0-1.088,48.216-.752,62.217,16.986,7.174,33.382,8.1,43.275,6.133,20.608-4.015,24-12.844,24-12.844s-.2-12.254-.96-31.8C414.11,179.268,414.943,160.9,413.8,156.808Z" fill="#455a64"/>
          <g id="freepik--letter--inject-150-5" data-name="freepik--letter--inject-150">
            <path id="Caminho_393" data-name="Caminho 393" d="M269.682,143.78a.891.891,0,0,1,.521-1.157l42.049-16.917a3.112,3.112,0,0,1,1.944.139l1.273.532a2.812,2.812,0,0,1,1.423,1.261l10.333,27.1a.879.879,0,0,1-.521,1.157l-42.06,16.917a3.112,3.112,0,0,1-1.944-.139l-1.273-.532a2.847,2.847,0,0,1-1.435-1.261Z" fill="#ba68c8"/>
            <path id="Caminho_394" data-name="Caminho 394" d="M269.705,143.12l3.205,1.331,43.437-17.484a3.47,3.47,0,0,0-.879-.555l-1.273-.532a3.032,3.032,0,0,0-1.944-.139L270.2,142.657A.937.937,0,0,0,269.705,143.12Z" fill="#fff" opacity="0.4"/>
            <path id="Caminho_395" data-name="Caminho 395" d="M269.682,143.78l10.333,27.1a2.847,2.847,0,0,0,1.435,1.261l1.273.532.3.1.417.093a4.359,4.359,0,0,0,.764,0h.278a.787.787,0,0,1-.463,0,.8.8,0,0,1-.474-.474l-10.333-27.087a.382.382,0,0,1,.278-.555l-.579-.243-3.205-1.331A.868.868,0,0,0,269.682,143.78Z" opacity="0.2"/>
            <path id="Caminho_396" data-name="Caminho 396" d="M272.911,144.451l25.4,7.729c1.817.555,3.471.255,4.061-.729l2.164-3.761L316.5,126.863l-11.166,20.978,21.9,6.943a.868.868,0,0,1,0,.66l-21.892-7.5-2.441,4.628c-.555,1.053-2.4,1.342-4.3.694l-3.471-1.157-11.108,20.758a.8.8,0,0,1-.474-.474l-.174-.451,11.687-19.925Z" opacity="0.2"/>
          </g>
          <path id="Caminho_397" data-name="Caminho 397" d="M341.225,165.753c-7.81,10.02-18.745,24.114-24.924,32.468-4.443-4.27-20.631-19.566-22.3-21.985-1.863-2.684-1.782-6.364-3.321-10.3-1.25-3.217-4.073-7.186-4.8-8.829-1.331-3.008-4.258-4.5-4.3-.1,0,3.656,1.736,8.007,1.539,8.84-.093.359-1.539-.37-3.113-1.851a14.638,14.638,0,0,1-1.874-2.175l-3.286-4.455-2.314-5.959s-.914.127-2.071,2.881c-3.332,7.938-2.893,16.627,3.529,23.628,3.807,4.154,10.217,9.835,16.87,17.819s19.127,21.8,24.449,24.866c4.79,2.754,10.634-1.6,17.356-8.4,9.43-9.5,24.01-25.456,24.01-25.456s10.877-18.444,4.536-36.761C353.259,150.282,351.2,152.967,341.225,165.753Z" fill="#ffa8a7"/>
          <path id="Caminho_398" data-name="Caminho 398" d="M363.811,149.264s-7.671.5-12.554,2.985c-1.307.671-5.056,4.744-8.62,9.511-6.943,9.361-19.2,25.583-19.2,25.583s.231,15.378,15.308,19.67c0,0,15.1-15.493,19.161-20.284C363.2,180.506,368.359,161.992,363.811,149.264Z" fill="#37474f"/>
        </g>
      </g>
    </g>
  </g>
</svg>
