<svg xmlns="http://www.w3.org/2000/svg" width="40" height="40" viewBox="0 0 40 40">
  <g id="Whatsapp" transform="translate(0)">
    <path id="Caminho_406" data-name="Caminho 406" d="M121.67,122.28h0a20,20,0,0,1-20-20h0a20,20,0,0,1,20-20h0a20,20,0,0,1,20,20h0A20,20,0,0,1,121.67,122.28Z" transform="translate(-101.67 -82.28)" fill="#af54cf"/>
    <path id="Caminho_407" data-name="Caminho 407" d="M133.21,101.77a10.79,10.79,0,0,0-21.56-.2v.47a10.65,10.65,0,0,0,1.55,5.53l-2,5.74,6-1.9a10.79,10.79,0,0,0,16-9.37A2.442,2.442,0,0,0,133.21,101.77ZM122.43,111a9.09,9.09,0,0,1-5-1.49L114,110.66l1.13-3.34a8.9,8.9,0,0,1-1.73-5.28,8.3,8.3,0,0,1,0-.87,9.07,9.07,0,0,1,18.06.17v.7A9,9,0,0,1,122.43,111Z" transform="translate(-101.67 -82.28)" fill="#fff" fill-rule="evenodd"/>
    <path id="Caminho_408" data-name="Caminho 408" d="M127.38,104.2c-.27-.13-1.57-.77-1.81-.85s-.42-.13-.6.13a11.868,11.868,0,0,1-.84,1,.427.427,0,0,1-.57.07,7.09,7.09,0,0,1-2.13-1.3,7.89,7.89,0,0,1-1.47-1.82c-.15-.26,0-.4.12-.53s.26-.31.4-.46l.09-.13a2.16,2.16,0,0,0,.17-.31.49.49,0,0,0,0-.46c-.07-.13-.6-1.42-.82-2s-.44-.43-.6-.43h-.5a1,1,0,0,0-.71.33,2.94,2.94,0,0,0-.92,2.19,3.3,3.3,0,0,0,.13.89,5.92,5.92,0,0,0,1,1.82,10.91,10.91,0,0,0,4.51,4c2.7,1,2.7.69,3.18.65a2.6,2.6,0,0,0,1.78-1.25,2.08,2.08,0,0,0,.16-1.25A5.711,5.711,0,0,0,127.38,104.2Z" transform="translate(-101.67 -82.28)" fill="#fff" fill-rule="evenodd"/>
  </g>
</svg>
